<?xml version="1.0" encoding="UTF-8" standalone="no"?>
<svg style="enable-background:new" xmlns="http://www.w3.org/2000/svg" height="512" viewBox="0 0 512 512" width="512" version="1.1" xmlns:xlink="http://www.w3.org/1999/xlink">
 <defs>
  <linearGradient id="c" y2="494" gradientUnits="userSpaceOnUse" y1="18" x2="512">
   <stop style="stop-color:#45a926" offset="0"/>
   <stop style="stop-color:#79c32a" offset="1"/>
  </linearGradient>
  <linearGradient id="a" y2="255.7" gradientUnits="userSpaceOnUse" y1="236.4" x2="344.6" x1="364.3">
   <stop style="stop-color:#88b637" offset="0"/>
   <stop style="stop-color:#88b637;stop-opacity:0" offset="1"/>
  </linearGradient>
  <linearGradient id="b" y2="48.21" gradientUnits="userSpaceOnUse" y1="463.8" gradientTransform="translate(-.000001656 2.886)" x2="309.4" x1="309.4">
   <stop style="stop-opacity:0" offset="0"/>
   <stop offset=".4962"/>
   <stop style="stop-opacity:0" offset="1"/>
  </linearGradient>
  <filter id="e" style="color-interpolation-filters:sRGB" height="1.192" width="1.192" y="-0.096" x="-0.096">
   <feGaussianBlur stdDeviation="16.623603"/>
  </filter>
  <filter id="d" style="color-interpolation-filters:sRGB" height="1.024" width="1.024" y="-0.012" x="-0.012">
   <feGaussianBlur stdDeviation="2.0779504"/>
  </filter>
 </defs>
 <path style="color:#000000;enable-background:accumulate;fill:url(#c)" d="m0 0v183.9 144.2 183.9h512v-183.9-144.2-183.9h-512z"/>
 <path style="opacity:.1;color:#000000;enable-background:accumulate;fill:#fff" d="m0 256v72.1 183.9h512v-183.9-72.1h-512z"/>
 <path d="m163.3 144c-12.9 0-19.3 0-19.3 15v18.01c0 15 6.4 15 19.3 15h9.375c12.9 0 19.3 0 19.3-15v-18c0-14.5-6.4-15-19.3-15zm60 0c-12.9 0-19.3 0-19.3 15v18.01c0 15 6.4 15 19.3 15h9.375c12.9 0 19.3 0 19.3-15v-18c0-14.5-6.4-15-19.3-15zm60 0c-12.9 0-19.3 0-19.3 15v18.01c0 15 6.4 15 19.3 15h9.375c12.9 0 19.3 0 19.3-15v-18c0-14.5-6.4-15-19.3-15zm-120 60c-12.9 0-19.3 0-19.3 15v18.01c0 15 6.4 15 19.3 15h9.375c12.9 0 19.3 0 19.3-15v-18c0-14.5-6.4-15-19.3-15zm60 0c-12.9 0-19.3 0-19.3 15v18.01c0 15 6.4 15 19.3 15h9.375c12.9 0 19.3 0 19.3-15v-18c0-14.5-6.4-15-19.3-15zm-60 60c-12.9 0-19.3 0-19.3 15v18.01c0 15 6.4 15 19.3 15h9.375c12.9 0 19.3 0 19.3-15v-18c0-14.5-6.4-15-19.3-15z" style="opacity:.2;color:#000000;enable-background:accumulate;fill:#a4ff80" transform="translate(-32,-32)"/>
 <path style="opacity:.05;fill-opacity:0;color:#000000;enable-background:accumulate" d="m219.3 124-35.19 71.66v59.25c-4.94 5.788-10.34 11.62-15.97 17.25-18.5 18.5-39.25 34.69-53.12 39.31l-23.34-23.5-71.66 35.2v170.7h256v-317.6c-15.4-33.4-32.4-45.9-56.7-52.4zm-97.5 229c0.007-0.005 0.0239 0.005 0.0312 0-2.611 1.63-5.251 3.227-7.906 4.812 2.656-1.586 5.264-3.182 7.875-4.812zm-24.09 14.06c0.008-0.004 0.0234 0.004 0.0312 0-2.742 1.499-5.529 2.981-8.312 4.438 2.784-1.457 5.539-2.939 8.281-4.438z"/>
 <g style="stroke-width:1.443;enable-background:new" transform="matrix(.6930 0 0 .6930 78.65 78.59)">
  <path d="m377.1 51.1-52.99 120.5 25.46 42.44c-0.0369 0.0579-0.0783 0.1196-0.1156 0.1776l4.419 7.429c-19.14 25.89-40.56 49.8-62.6 71.85l0.003 0.003c-0.0523 0.0521-0.1056 0.1028-0.1578 0.155l-0.1578 0.1578c-22.09 22.08-46.05 43.53-71.99 62.7l-7.421-4.414c-0.0579 0.0372-0.1168 0.0787-0.1747 0.1156l-42.4-25.5-120.5 53c8.447 37.31 21.01 101.1 77.79 84.13 52.32-15.62 96.19-46.81 135.5-81.92l-0.008-0.006c21.42-17.96 41.5-37.34 60.76-56.59l0.003 0.003 0.1578-0.1578c0.0517-0.0517 0.1033-0.1062 0.155-0.1578 19.22-19.23 38.56-39.27 56.49-60.64l0.006 0.008c35.1-39.2 66.3-83.1 81.9-135.4 16.9-56.8-46.8-69.36-84.1-77.8z" style="opacity:.2;color:#000000;filter:url(#e);enable-background:accumulate;fill:url(#b)"/>
  <path style="opacity:.1;color:#000000;filter:url(#d);enable-background:accumulate" d="m377.1 51.1-52.99 120.5 25.46 42.44c-0.0369 0.0579-0.0784 0.1196-0.1156 0.1776l4.419 7.429c-19.14 25.89-40.56 49.8-62.6 71.85l0.003 0.003c-0.0524 0.0521-0.1056 0.1027-0.1578 0.155l-0.1578 0.1578c-22.09 22.08-46.05 43.53-71.99 62.7l-7.421-4.414c-0.0579 0.0372-0.1169 0.0786-0.1747 0.1156l-42.4-25.5-120.5 53c8.447 37.31 21.01 101.1 77.79 84.13 52.32-15.62 96.19-46.81 135.5-81.92l-0.009-0.006c21.42-17.96 41.5-37.34 60.76-56.59l0.003 0.003 0.1578-0.1578c0.0516-0.0518 0.1033-0.1062 0.155-0.1578 19.22-19.23 38.56-39.27 56.49-60.64l0.006 0.009c35.1-39.2 66.3-83.1 81.9-135.4 16.9-56.8-46.8-69.36-84.1-77.8z"/>
  <path style="color:#000000;enable-background:accumulate;fill:#e5f1d0" d="m400.1 157.9c1.5 5.849 1.34 12.71-1.076 20.8-15.71 52.62-49.89 96.66-86.53 133.3l0.002 0.002c-0.0363 0.0361-0.0732 0.0712-0.1094 0.1074l-0.1094 0.1094c-15.31 15.3-31.91 30.17-49.89 43.45l-5.143-3.059c-0.0401 0.0258-0.081 0.0545-0.1211 0.0801l-29.5-17.6-83.5 36.8c5.854 25.85 14.56 70.05 53.91 58.3 36.25-10.82 66.66-32.44 93.92-56.77l-0.006-0.004c14.84-12.45 28.76-25.87 42.11-39.22l0.002 0.002 0.1094-0.1094c0.0358-0.0359 0.0716-0.0736 0.1074-0.1094 36.64-36.65 73.94-77.57 89.65-130.2 7.342-24.6-6.088-37.81-23.91-45.78z" transform="matrix(1.443 0 0 1.443 -159.7 -159.6)"/>
  <path d="m378.8 181.5c-12.59 20.97-26.92 40.77-42.29 59.47l23.57 42.43c19.41-21.25 37.87-43.73 53.68-68.02z" style="opacity:.1;color:#000000;enable-background:accumulate;fill:url(#a)"/>
  <path d="m377.1 48.21-53 120.5 25.4 42.5c-0.0369 0.0579-0.0787 0.1172-0.1159 0.1752l29.86 50.19c35.11-39.33 66.3-83.2 81.92-135.5 16.95-56.78-46.82-69.34-84.13-77.79z" style="color:#000000;enable-background:accumulate;fill:#f1f8e7"/>
  <path d="m340 112-36.72 83.51 0.5078 0.8457l36.2-82.3c22.62 5.121 59.28 12.43 60.23 40.52 0.7-29.7-37.1-37.3-60.2-42.5zm-16.76 119.1c-13.09 17.6-27.69 33.88-42.72 48.91l0.002 0.002c-0.0363 0.0361-0.0732 0.0712-0.1094 0.1074l-0.1094 0.1094c-15.31 15.3-31.91 30.17-49.89 43.45l-5.143-3.059c-0.0401 0.0258-0.081 0.0545-0.1211 0.0801l-29.5-17.6-83.5 36.8c0.132 0.583 0.2749 1.22 0.4102 1.82l83.1-36.54 29.41 17.64c0.0401-0.0255 0.081-0.0543 0.1211-0.0801l5.143 3.059c17.97-13.28 34.58-28.15 49.89-43.45l0.1094-0.1094c0.0362-0.0362 0.0731-0.0713 0.1094-0.1074l-0.002-0.002c15.28-15.28 30.12-31.86 43.38-49.79l-0.666-1.119z" style="opacity:.6;color:#000000;enable-background:accumulate;fill:#fff" transform="matrix(1.443 0 0 1.443 -113.5 -113.4)"/>
 </g>
</svg>
