<?xml version="1.0" encoding="UTF-8" standalone="no"?>
<svg style="enable-background:new" xmlns="http://www.w3.org/2000/svg" height="1024" width="1024" version="1.1" xmlns:xlink="http://www.w3.org/1999/xlink" viewBox="0 0 1024 1024">
 <defs>
  <linearGradient id="b" y2="255.7" gradientUnits="userSpaceOnUse" y1="236.4" x2="344.6" x1="364.3">
   <stop stop-color="#88b637" offset="0"/>
   <stop stop-color="#88b637" stop-opacity="0" offset="1"/>
  </linearGradient>
  <linearGradient id="a" x1="309.4" gradientUnits="userSpaceOnUse" y1="463.8" gradientTransform="matrix(1.033 0 0 1.033 -8.338 -5.444)" x2="309.4" y2="48.21">
   <stop stop-opacity="0" offset="0"/>
   <stop offset=".4962"/>
   <stop stop-opacity="0" offset="1"/>
  </linearGradient>
 </defs>
 <g style="enable-background:new" transform="translate(256,256)">
  <path opacity=".2" style="color:#000000;enable-background:accumulate" d="m163.3 144c-12.9 0-19.3 0-19.3 15v18.01c0 15 6.4 15 19.3 15h9.375c12.9 0 19.3 0 19.3-15v-18c0-14.5-6.4-15-19.3-15zm60 0c-12.9 0-19.3 0-19.3 15v18.01c0 15 6.4 15 19.3 15h9.375c12.9 0 19.3 0 19.3-15v-18c0-14.5-6.4-15-19.3-15zm60 0c-12.9 0-19.3 0-19.3 15v18.01c0 15 6.4 15 19.3 15h9.375c12.9 0 19.3 0 19.3-15v-18c0-14.5-6.4-15-19.3-15zm-120 60c-12.9 0-19.3 0-19.3 15v18.01c0 15 6.4 15 19.3 15h9.375c12.9 0 19.3 0 19.3-15v-18c0-14.5-6.4-15-19.3-15zm60 0c-12.9 0-19.3 0-19.3 15v18.01c0 15 6.4 15 19.3 15h9.375c12.9 0 19.3 0 19.3-15v-18c0-14.5-6.4-15-19.3-15zm-60 60c-12.9 0-19.3 0-19.3 15v18.01c0 15 6.4 15 19.3 15h9.375c12.9 0 19.3 0 19.3-15v-18c0-14.5-6.4-15-19.3-15z" transform="translate(-32,-32)" fill="#a4ff80"/>
  <path opacity=".05" style="color:#000000;enable-background:accumulate" fill-opacity="0" d="m219.3 124-35.19 71.66v59.25c-4.94 5.788-10.34 11.62-15.97 17.25-18.5 18.5-39.25 34.69-53.12 39.31l-23.34-23.5-71.66 35.2v170.7h256v-317.6c-15.4-33.4-32.4-45.9-56.7-52.4zm-97.5 229c0.007-0.005 0.0239 0.005 0.0312 0-2.611 1.63-5.251 3.227-7.906 4.812 2.656-1.586 5.264-3.182 7.875-4.812zm-24.09 14.06c0.008-0.004 0.0234 0.004 0.0312 0-2.742 1.499-5.529 2.981-8.312 4.438 2.784-1.457 5.539-2.939 8.281-4.438z"/>
  <g style="enable-background:new" stroke-width="1.443" transform="matrix(.693 0 0 .693 78.65 78.59)">
   <path opacity=".1" style="color:#000000;enable-background:accumulate" d="m381 44.34-54.71 124.4 26.29 43.82c-0.0381 0.0598-0.0809 0.1235-0.1194 0.1834l4.563 7.671c-19.76 26.73-41.88 51.42-64.64 74.19l0.003 0.003c-0.054 0.0538-0.109 0.1061-0.1629 0.16l-0.1629 0.1629c-22.81 22.8-47.55 44.95-74.33 64.74l-7.662-4.558c-0.0598 0.0384-0.1206 0.0813-0.1804 0.1194l-43.78-26.33-124.4 54.72c8.722 38.52 21.69 104.4 80.32 86.87 54.02-16.13 99.32-48.33 139.9-84.59l-0.008-0.006c22.12-18.54 42.85-38.56 62.74-58.43l0.003 0.003 0.1629-0.1629c0.0534-0.0534 0.1067-0.1097 0.16-0.1629 19.85-19.86 39.81-40.55 58.33-62.61l0.006 0.008c36.24-40.48 68.46-85.8 84.57-139.8 17.45-58.65-48.32-71.62-86.84-80.33z" stroke-width="1.49" fill="url(#a)"/>
   <path opacity=".1" style="color:#000000;enable-background:accumulate" stroke-width="1.46" d="m378.5 48.64-53.62 121.9 25.76 42.94c-0.0373 0.0586-0.0793 0.121-0.117 0.1797l4.471 7.517c-19.37 26.2-41.04 50.39-63.34 72.7l0.003 0.003c-0.053 0.0527-0.1068 0.1039-0.1597 0.1568l-0.1597 0.1597c-22.35 22.34-46.59 44.05-72.84 63.44l-7.509-4.466c-0.0586 0.0376-0.1183 0.0795-0.1768 0.117l-42.9-25.8-121.9 53.63c8.547 37.75 21.26 102.3 78.71 85.13 52.94-15.8 97.33-47.36 137.1-82.89l-0.009-0.006c21.67-18.17 41.99-37.78 61.48-57.26l0.003 0.003 0.1597-0.1597c0.0522-0.0524 0.1045-0.1075 0.1568-0.1597 19.45-19.46 39.02-39.73 57.16-61.36l0.006 0.009c35.4-39.4 67-83.8 82.8-136.8 17.1-57.42-47.4-70.13-85.1-78.67z"/>
   <path d="m400.1 157.9c1.5 5.849 1.34 12.71-1.076 20.8-15.71 52.62-49.89 96.66-86.53 133.3l0.002 0.002c-0.0363 0.0361-0.0732 0.0712-0.1094 0.1074l-0.1094 0.1094c-15.31 15.3-31.91 30.17-49.89 43.45l-5.143-3.059c-0.0401 0.0258-0.081 0.0545-0.1211 0.0801l-29.5-17.6-83.5 36.8c5.854 25.85 14.56 70.05 53.91 58.3 36.25-10.82 66.66-32.44 93.92-56.77l-0.006-0.004c14.84-12.45 28.76-25.87 42.11-39.22l0.002 0.002 0.1094-0.1094c0.0358-0.0359 0.0716-0.0736 0.1074-0.1094 36.64-36.65 73.94-77.57 89.65-130.2 7.342-24.6-6.088-37.81-23.91-45.78z" style="color:#000000;enable-background:accumulate" fill="#e5f1d0" transform="matrix(1.443,0,0,1.443,-159.7,-159.6)"/>
   <path opacity=".1" style="color:#000000;enable-background:accumulate" fill="url(#b)" d="m378.8 181.5c-12.59 20.97-26.92 40.77-42.29 59.47l23.57 42.43c19.41-21.25 37.87-43.73 53.68-68.02z"/>
   <path style="color:#000000;enable-background:accumulate" fill="#f1f8e7" d="m377.1 48.21-53 120.5 25.4 42.5c-0.0369 0.0579-0.0787 0.1172-0.1159 0.1752l29.86 50.19c35.11-39.33 66.3-83.2 81.92-135.5 16.95-56.78-46.82-69.34-84.13-77.79z"/>
   <path opacity=".6" style="color:#000000;enable-background:accumulate" d="m377.1 48.22-52.99 120.5 0.7328 1.22 52.24-118.8c32.64 7.39 85.54 17.94 86.91 58.47 1.01-42.86-53.54-53.82-86.87-61.33zm-24.18 171.9c-18.89 25.4-39.96 48.89-61.64 70.58l0.003 0.003c-0.0524 0.0521-0.1056 0.1027-0.1579 0.155l-0.1579 0.1579c-22.09 22.08-46.05 43.54-71.99 62.7l-7.421-4.414c-0.0579 0.0372-0.1169 0.0786-0.1748 0.1156l-42.57-25.4-120.5 53.1c0.1905 0.8413 0.3967 1.76 0.5919 2.626l119.9-52.73 42.44 25.45c0.0579-0.0368 0.1169-0.0784 0.1748-0.1156l7.421 4.414c25.93-19.16 49.9-40.62 71.99-62.7l0.1579-0.1579c0.0522-0.0522 0.1055-0.1029 0.1579-0.155l-0.003-0.003c22.05-22.05 43.46-45.97 62.6-71.85l-0.961-1.615z" stroke-width="2.082" fill="#fff"/>
  </g>
 </g>
</svg>
